<svg width="15" height="15" viewBox="0 0 15 15" fill="none" xmlns="http://www.w3.org/2000/svg">
<path d="M7.5 0C6.01664 0 4.56659 0.439867 3.33323 1.26398C2.09986 2.08809 1.13856 3.25943 0.570907 4.62987C0.00324963 6.00032 -0.145275 7.50832 0.144114 8.96318C0.433503 10.418 1.14781 11.7544 2.1967 12.8033C3.2456 13.8522 4.58197 14.5665 6.03682 14.8559C7.49168 15.1453 8.99968 14.9967 10.3701 14.4291C11.7406 13.8614 12.9119 12.9001 13.736 11.6668C14.5601 10.4334 15 8.98336 15 7.5C14.9979 5.51152 14.207 3.60509 12.801 2.19902C11.3949 0.79295 9.48848 0.00209987 7.5 0ZM3.61154 12.512C4.0289 11.8593 4.60385 11.3221 5.28341 10.95C5.96296 10.578 6.72525 10.3829 7.5 10.3829C8.27475 10.3829 9.03704 10.578 9.7166 10.95C10.3962 11.3221 10.9711 11.8593 11.3885 12.512C10.2767 13.3767 8.90843 13.8461 7.5 13.8461C6.09157 13.8461 4.72332 13.3767 3.61154 12.512ZM5.19231 6.92308C5.19231 6.46666 5.32765 6.02049 5.58123 5.64099C5.8348 5.26149 6.19521 4.96571 6.61689 4.79105C7.03856 4.61638 7.50256 4.57068 7.95021 4.65973C8.39786 4.74877 8.80905 4.96855 9.13179 5.29129C9.45452 5.61403 9.67431 6.02522 9.76335 6.47287C9.8524 6.92052 9.80669 7.38451 9.63203 7.80619C9.45737 8.22787 9.16158 8.58828 8.78209 8.84185C8.40259 9.09542 7.95642 9.23077 7.5 9.23077C6.88796 9.23077 6.30099 8.98764 5.86822 8.55486C5.43544 8.12208 5.19231 7.53511 5.19231 6.92308ZM12.2423 11.7123C11.5989 10.7799 10.6941 10.0585 9.64183 9.63894C10.2071 9.19373 10.6195 8.58345 10.8219 7.89295C11.0242 7.20246 11.0063 6.46607 10.7707 5.78621C10.5351 5.10634 10.0935 4.51679 9.50736 4.09954C8.92117 3.68228 8.21953 3.45806 7.5 3.45806C6.78047 3.45806 6.07883 3.68228 5.49264 4.09954C4.90646 4.51679 4.46486 5.10634 4.22927 5.78621C3.99368 6.46607 3.97581 7.20246 4.17813 7.89295C4.38046 8.58345 4.79292 9.19373 5.35818 9.63894C4.30588 10.0585 3.40113 10.7799 2.7577 11.7123C1.94464 10.798 1.41323 9.66811 1.22744 8.45877C1.04165 7.24944 1.20941 6.01218 1.71052 4.89598C2.21163 3.77979 3.02472 2.83224 4.05188 2.16745C5.07904 1.50266 6.27648 1.14898 7.5 1.14898C8.72352 1.14898 9.92096 1.50266 10.9481 2.16745C11.9753 2.83224 12.7884 3.77979 13.2895 4.89598C13.7906 6.01218 13.9584 7.24944 13.7726 8.45877C13.5868 9.66811 13.0554 10.798 12.2423 11.7123Z" fill="#979DAA"/>
</svg>
