<svg width="149" height="51" viewBox="0 0 149 51" fill="none" xmlns="http://www.w3.org/2000/svg">
<g clip-path="url(#clip0_43_12195)">
<path d="M137.135 0.723551H11.8721C11.4155 0.723551 10.9644 0.723551 10.509 0.726041C10.1278 0.728531 9.74965 0.735765 9.36479 0.741854C8.52869 0.751693 7.69455 0.82525 6.86963 0.961885C6.04587 1.10149 5.24791 1.3647 4.50274 1.7426C3.75849 2.12369 3.07845 2.61888 2.48728 3.21021C1.89301 3.79987 1.39764 4.48144 1.02022 5.22871C0.641752 5.97449 0.379324 6.77367 0.241995 7.59863C0.103361 8.42256 0.028761 9.25598 0.0188641 10.0914C0.00730904 10.4732 0.0060888 10.8562 0 11.238V40.0188C0.0060888 40.4054 0.00730904 40.78 0.0188641 41.1667C0.028764 42.0021 0.103364 42.8355 0.241995 43.6594C0.378945 44.4848 0.641388 45.2845 1.02022 46.0305C1.39747 46.7754 1.89291 47.4542 2.48728 48.0406C3.0762 48.6345 3.75669 49.1301 4.50274 49.5082C5.2479 49.8872 6.04578 50.1519 6.86963 50.2937C7.69469 50.4292 8.52874 50.5028 9.36479 50.5138C9.74965 50.5223 10.1278 50.5272 10.509 50.5272C10.9644 50.5296 11.4156 50.5296 11.8721 50.5296H137.135C137.582 50.5296 138.037 50.5296 138.484 50.5272C138.864 50.5272 139.253 50.5223 139.632 50.5138C140.467 50.5034 141.299 50.4298 142.123 50.2937C142.949 50.1509 143.75 49.8862 144.499 49.5082C145.244 49.1298 145.924 48.6343 146.512 48.0406C147.105 47.4519 147.602 46.7736 147.983 46.0305C148.359 45.2839 148.619 44.4844 148.754 43.6594C148.893 42.8354 148.97 42.0022 148.985 41.1667C148.99 40.78 148.99 40.4054 148.99 40.0188C149 39.5665 149 39.1166 149 38.6569V12.5975C149 12.1415 149 11.6892 148.99 11.238C148.99 10.8562 148.99 10.4732 148.985 10.0914C148.97 9.25586 148.893 8.42262 148.754 7.59858C148.619 6.7741 148.359 5.97498 147.983 5.22866C147.215 3.73084 145.996 2.51162 144.499 1.74248C143.75 1.36551 142.949 1.10238 142.123 0.961773C141.299 0.824536 140.467 0.750954 139.632 0.74168C139.253 0.735604 138.864 0.728307 138.484 0.725879C138.037 0.723389 137.582 0.723389 137.135 0.723389V0.723551Z" fill="black"/>
<path d="M10.516 49.4401C10.1366 49.4401 9.76638 49.4352 9.38998 49.4267C8.61025 49.4166 7.83233 49.3487 7.06262 49.2237C6.3449 49.1 5.64962 48.8701 4.99972 48.5414C4.35578 48.2155 3.76846 47.7881 3.26025 47.2756C2.74468 46.7692 2.31545 46.1818 1.98956 45.5368C1.66007 44.8875 1.43205 44.1916 1.31344 43.4733C1.18534 42.7014 1.11604 41.921 1.10612 41.1386C1.09823 40.876 1.08789 40.0017 1.08789 40.0017V11.238C1.08789 11.238 1.0989 10.3771 1.10618 10.1241C1.11568 9.34302 1.18458 8.56377 1.31229 7.79312C1.43113 7.07282 1.65932 6.37491 1.98898 5.72355C2.31367 5.07895 2.74053 4.49114 3.25299 3.98289C3.76487 3.46981 4.35408 3.04022 4.99911 2.70976C5.64752 2.38214 6.34148 2.15383 7.05775 2.03247C7.82999 1.90617 8.6106 1.83789 9.39305 1.82819L10.5166 1.81299H138.479L139.616 1.8288C140.391 1.83801 141.165 1.90569 141.93 2.03125C142.654 2.15413 143.355 2.38403 144.011 2.71341C145.303 3.37937 146.354 4.43299 147.018 5.72659C147.342 6.37346 147.567 7.06567 147.684 7.77975C147.813 8.55672 147.886 9.3421 147.9 10.1296C147.904 10.4822 147.904 10.861 147.904 11.238C147.914 11.7049 147.914 12.1493 147.914 12.5974V38.6568C147.914 39.1092 147.914 39.5506 147.904 39.9956C147.904 40.4005 147.904 40.7714 147.899 41.1532C147.885 41.9267 147.814 42.698 147.686 43.4611C147.57 44.1846 147.343 44.8859 147.014 45.5405C146.686 46.1785 146.259 46.7608 145.749 47.2659C145.241 47.7811 144.652 48.211 144.007 48.5391C143.353 48.8703 142.653 49.1011 141.93 49.2237C141.16 49.3494 140.382 49.4173 139.603 49.4267C139.238 49.4352 138.856 49.4401 138.485 49.4401L137.135 49.4426L10.516 49.4401Z" fill="black"/>
<path d="M30.8409 26.0005C30.8543 24.9612 31.1304 23.9422 31.6434 23.0383C32.1564 22.1344 32.8898 21.3749 33.7752 20.8306C33.2127 20.0272 32.4707 19.3661 31.608 18.8998C30.7453 18.4334 29.7858 18.1746 28.8056 18.1439C26.7147 17.9244 24.6876 19.3951 23.6222 19.3951C22.536 19.3951 20.8956 18.1657 19.129 18.202C17.9864 18.239 16.8728 18.5712 15.8967 19.1665C14.9207 19.7617 14.1155 20.5997 13.5596 21.5987C11.1514 25.768 12.9477 31.8954 15.2545 35.2656C16.4086 36.9158 17.7574 38.7592 19.5224 38.6938C21.2495 38.6222 21.8945 37.5925 23.9793 37.5925C26.0447 37.5925 26.6499 38.6938 28.4506 38.6523C30.3039 38.6222 31.4715 36.9947 32.5852 35.3288C33.4144 34.1529 34.0525 32.8533 34.4758 31.4781C33.3991 31.0227 32.4803 30.2605 31.8339 29.2864C31.1875 28.3123 30.8422 27.1695 30.8409 26.0005Z" fill="white"/>
<path d="M27.4389 15.9277C28.4494 14.7146 28.9472 13.1555 28.8267 11.5813C27.2829 11.7434 25.8569 12.4813 24.8328 13.6478C24.332 14.2176 23.9485 14.8806 23.7042 15.5988C23.4598 16.3169 23.3594 17.0762 23.4087 17.8332C24.1808 17.8412 24.9447 17.6738 25.6429 17.3437C26.341 17.0136 26.9551 16.5295 27.4389 15.9277Z" fill="white"/>
<path d="M52.6728 34.5159H46.779L45.3636 38.6952H42.8672L48.4497 23.2329H51.0434L56.6259 38.6952H54.0869L52.6728 34.5159ZM47.3894 32.5874H52.0612L49.7581 25.8047H49.6937L47.3894 32.5874Z" fill="white"/>
<path d="M68.6816 33.0593C68.6816 36.5625 66.8066 38.8132 63.977 38.8132C63.2602 38.8507 62.5474 38.6856 61.9201 38.3368C61.2928 37.988 60.7764 37.4696 60.43 36.8409H60.3765V42.4246H58.0625V27.422H60.3024V29.2971H60.3449C60.7072 28.6714 61.2323 28.1557 61.8644 27.8047C62.4965 27.4538 63.2119 27.2808 63.9345 27.3041C66.7956 27.3041 68.6816 29.5658 68.6816 33.0593ZM66.3032 33.0593C66.3032 30.7769 65.1237 29.2764 63.324 29.2764C61.556 29.2764 60.3668 30.8085 60.3668 33.0593C60.3668 35.3307 61.556 36.8519 63.324 36.8519C65.1237 36.8519 66.3032 35.3623 66.3032 33.0593Z" fill="white"/>
<path d="M81.0898 33.0593C81.0898 36.5625 79.2148 38.8132 76.3852 38.8132C75.6684 38.8507 74.9556 38.6856 74.3283 38.3368C73.701 37.988 73.1846 37.4696 72.8382 36.8409H72.7847V42.4246H70.4707V27.422H72.7105V29.297H72.7531C73.1154 28.6714 73.6405 28.1557 74.2725 27.8047C74.9046 27.4538 75.62 27.2808 76.3426 27.3041C79.2038 27.3041 81.0898 29.5658 81.0898 33.0593ZM78.7114 33.0593C78.7114 30.7769 77.5319 29.2764 75.7322 29.2764C73.9642 29.2764 72.775 30.8085 72.775 33.0593C72.775 35.3307 73.9642 36.8519 75.7322 36.8519C77.5319 36.8519 78.7114 35.3623 78.7114 33.0593H78.7114Z" fill="white"/>
<path d="M89.2906 34.387C89.4621 35.9204 90.9517 36.9271 92.9872 36.9271C94.9376 36.9271 96.3408 35.9203 96.3408 34.5378C96.3408 33.3376 95.4945 32.619 93.4906 32.1265L91.4867 31.6437C88.6474 30.9579 87.3293 29.6301 87.3293 27.4754C87.3293 24.8076 89.6542 22.9751 92.9555 22.9751C96.2228 22.9751 98.4627 24.8076 98.5381 27.4754H96.2022C96.0623 25.9323 94.7868 25.0009 92.9227 25.0009C91.0586 25.0009 89.7831 25.9433 89.7831 27.3149C89.7831 28.4081 90.5978 29.0513 92.5907 29.5437L94.2943 29.962C97.4668 30.7123 98.7849 31.9866 98.7849 34.2483C98.7849 37.1411 96.4806 38.9529 92.8157 38.9529C89.3866 38.9529 87.0714 37.1837 86.9219 34.3869L89.2906 34.387Z" fill="white"/>
<path d="M103.779 24.7542V27.422H105.922V29.2545H103.779V35.4693C103.779 36.4347 104.208 36.8847 105.15 36.8847C105.405 36.8802 105.659 36.8623 105.911 36.8311V38.6526C105.488 38.7318 105.057 38.7677 104.626 38.7596C102.344 38.7596 101.454 37.9024 101.454 35.7161V29.2545H99.8145V27.422H101.454V24.7542H103.779Z" fill="white"/>
<path d="M107.164 33.0591C107.164 29.5121 109.253 27.2832 112.511 27.2832C115.779 27.2832 117.859 29.512 117.859 33.0591C117.859 36.6158 115.79 38.8349 112.511 38.8349C109.232 38.8349 107.164 36.6158 107.164 33.0591ZM115.501 33.0591C115.501 30.6259 114.386 29.1898 112.511 29.1898C110.636 29.1898 109.522 30.6368 109.522 33.0591C109.522 35.5019 110.636 36.9271 112.511 36.9271C114.386 36.9271 115.501 35.5019 115.501 33.0591H115.501Z" fill="white"/>
<path d="M119.766 27.4219H121.973V29.3407H122.026C122.175 28.7414 122.527 28.2118 123.02 27.8409C123.514 27.47 124.121 27.2804 124.738 27.304C125.004 27.303 125.27 27.332 125.531 27.3903V29.5547C125.194 29.4519 124.843 29.4046 124.491 29.4149C124.155 29.4013 123.82 29.4605 123.508 29.5886C123.197 29.7167 122.918 29.9107 122.689 30.1571C122.46 30.4035 122.287 30.6965 122.181 31.0161C122.076 31.3357 122.042 31.6743 122.08 32.0085V38.6952H119.766L119.766 27.4219Z" fill="white"/>
<path d="M136.2 35.384C135.889 37.4305 133.896 38.8349 131.346 38.8349C128.067 38.8349 126.031 36.6376 126.031 33.1126C126.031 29.5765 128.078 27.2832 131.249 27.2832C134.368 27.2832 136.329 29.4257 136.329 32.8438V33.6366H128.367V33.7765C128.33 34.1914 128.382 34.6093 128.52 35.0026C128.657 35.3959 128.876 35.7554 129.163 36.0574C129.45 36.3595 129.797 36.597 130.183 36.7542C130.569 36.9115 130.984 36.9849 131.4 36.9696C131.947 37.0208 132.495 36.8942 132.964 36.6085C133.433 36.3228 133.798 35.8933 134.003 35.384L136.2 35.384ZM128.378 32.0194H134.014C134.035 31.6464 133.978 31.273 133.848 30.9229C133.718 30.5728 133.516 30.2533 133.257 29.9847C132.997 29.716 132.685 29.5039 132.339 29.3617C131.994 29.2195 131.623 29.1502 131.249 29.1582C130.872 29.156 130.499 29.2284 130.15 29.3713C129.801 29.5141 129.484 29.7246 129.217 29.9906C128.95 30.2566 128.739 30.5729 128.595 30.9211C128.451 31.2693 128.377 31.6426 128.378 32.0194V32.0194Z" fill="white"/>
<path d="M47.0997 11.5951C47.5848 11.5603 48.0716 11.6336 48.525 11.8097C48.9783 11.9858 49.387 12.2603 49.7214 12.6135C50.0558 12.9666 50.3077 13.3896 50.4589 13.8519C50.6101 14.3142 50.6567 14.8043 50.5956 15.2868C50.5956 17.6603 49.3127 19.0247 47.0997 19.0247H44.416V11.5951H47.0997ZM45.57 17.974H46.9708C47.3174 17.9947 47.6643 17.9379 47.9862 17.8076C48.3082 17.6774 48.597 17.477 48.8317 17.221C49.0664 16.9651 49.2411 16.66 49.343 16.328C49.4449 15.996 49.4716 15.6455 49.4209 15.3019C49.4679 14.9597 49.4386 14.6114 49.3351 14.2818C49.2316 13.9523 49.0565 13.6497 48.8223 13.3958C48.5881 13.1418 48.3007 12.9428 47.9806 12.8131C47.6605 12.6833 47.3156 12.6259 46.9708 12.645H45.57V17.974Z" fill="white"/>
<path d="M51.8992 16.219C51.864 15.8505 51.9061 15.4787 52.023 15.1275C52.1398 14.7763 52.3288 14.4534 52.5777 14.1795C52.8267 13.9056 53.1302 13.6867 53.4687 13.5369C53.8071 13.3872 54.1732 13.3098 54.5433 13.3098C54.9135 13.3098 55.2796 13.3872 55.6181 13.5369C55.9565 13.6867 56.26 13.9056 56.509 14.1795C56.7579 14.4534 56.9469 14.7763 57.0637 15.1275C57.1806 15.4787 57.2227 15.8505 57.1875 16.219C57.2234 16.5878 57.1817 16.9601 57.0652 17.3119C56.9487 17.6637 56.7598 17.9872 56.5108 18.2616C56.2618 18.5361 55.9581 18.7554 55.6193 18.9055C55.2804 19.0555 54.9139 19.1331 54.5433 19.1331C54.1728 19.1331 53.8063 19.0555 53.4674 18.9055C53.1286 18.7554 52.8249 18.5361 52.5759 18.2616C52.3269 17.9872 52.138 17.6637 52.0215 17.3119C51.905 16.9601 51.8633 16.5878 51.8992 16.219ZM56.0493 16.219C56.0493 15.0036 55.5033 14.2929 54.5452 14.2929C53.5833 14.2929 53.0423 15.0036 53.0423 16.219C53.0423 17.4441 53.5834 18.1493 54.5452 18.1493C55.5034 18.1493 56.0493 17.4392 56.0493 16.219H56.0493Z" fill="white"/>
<path d="M64.2169 19.0248H63.0691L61.9103 14.8954H61.8227L60.6688 19.0248H59.5318L57.9863 13.418H59.1087L60.1131 17.6963H60.1958L61.3485 13.418H62.41L63.5628 17.6963H63.6503L64.6498 13.418H65.7564L64.2169 19.0248Z" fill="white"/>
<path d="M67.0567 13.4177H68.1218V14.3084H68.2045C68.3448 13.9885 68.5814 13.7203 68.8813 13.5413C69.1812 13.3622 69.5295 13.2812 69.8777 13.3095C70.1505 13.289 70.4244 13.3301 70.6792 13.4298C70.9339 13.5296 71.163 13.6853 71.3494 13.8856C71.5358 14.0859 71.6747 14.3255 71.7559 14.5868C71.8371 14.848 71.8584 15.1242 71.8184 15.3949V19.0245H70.7118V15.6727C70.7118 14.7717 70.3203 14.3236 69.502 14.3236C69.3167 14.315 69.1318 14.3465 68.9599 14.416C68.788 14.4855 68.6332 14.5914 68.506 14.7264C68.3789 14.8613 68.2824 15.0222 68.2232 15.1979C68.164 15.3736 68.1435 15.5601 68.1632 15.7445V19.0245H67.0566L67.0567 13.4177Z" fill="white"/>
<path d="M73.5801 11.2292H74.6866V19.0248H73.5801V11.2292Z" fill="white"/>
<path d="M76.2254 16.2191C76.1901 15.8506 76.2323 15.4788 76.3492 15.1276C76.4661 14.7763 76.6551 14.4534 76.904 14.1795C77.153 13.9056 77.4565 13.6867 77.795 13.5369C78.1335 13.3872 78.4996 13.3098 78.8698 13.3098C79.24 13.3098 79.6061 13.3872 79.9446 13.5369C80.2831 13.6867 80.5866 13.9056 80.8356 14.1795C81.0845 14.4534 81.2735 14.7763 81.3904 15.1276C81.5073 15.4788 81.5494 15.8506 81.5142 16.2191C81.5501 16.5879 81.5084 16.9602 81.3918 17.312C81.2753 17.6638 81.0864 17.9873 80.8373 18.2617C80.5883 18.5362 80.2846 18.7555 79.9457 18.9055C79.6069 19.0556 79.2404 19.1332 78.8698 19.1332C78.4992 19.1332 78.1327 19.0556 77.7939 18.9055C77.455 18.7555 77.1513 18.5362 76.9023 18.2617C76.6532 17.9873 76.4643 17.6638 76.3478 17.312C76.2312 16.9602 76.1895 16.5879 76.2254 16.2191ZM80.3755 16.2191C80.3755 15.0037 79.8295 14.293 78.8713 14.293C77.9095 14.293 77.3684 15.0037 77.3684 16.2191C77.3684 17.4442 77.9095 18.1494 78.8713 18.1494C79.8295 18.1494 80.3755 17.4393 80.3755 16.2191H80.3755Z" fill="white"/>
<path d="M82.6797 17.4392C82.6797 16.43 83.4312 15.8481 84.7651 15.7655L86.2838 15.6779V15.194C86.2838 14.6018 85.8923 14.2674 85.1359 14.2674C84.5182 14.2674 84.0902 14.4942 83.9674 14.8906H82.8961C83.0092 13.9275 83.9151 13.3098 85.187 13.3098C86.5927 13.3098 87.3855 14.0096 87.3855 15.194V19.0249H86.3203V18.2369H86.2327C86.055 18.5196 85.8055 18.75 85.5096 18.9046C85.2138 19.0593 84.8821 19.1327 84.5486 19.1172C84.3133 19.1417 84.0754 19.1166 83.8503 19.0435C83.6252 18.9704 83.418 18.851 83.2419 18.6929C83.0658 18.5348 82.9248 18.3416 82.828 18.1256C82.7311 17.9097 82.6806 17.6759 82.6797 17.4392ZM86.2838 16.9601V16.4914L84.9146 16.5789C84.1425 16.6306 83.7923 16.8933 83.7923 17.3876C83.7923 17.8922 84.23 18.1858 84.832 18.1858C85.0084 18.2037 85.1865 18.1859 85.3559 18.1335C85.5252 18.0811 85.6823 17.9951 85.8177 17.8808C85.9532 17.7664 86.0643 17.626 86.1443 17.4678C86.2244 17.3097 86.2718 17.137 86.2838 16.9601Z" fill="white"/>
<path d="M88.8398 16.219C88.8398 14.4473 89.7506 13.325 91.1672 13.325C91.5176 13.3088 91.8654 13.3928 92.1699 13.567C92.4743 13.7412 92.7229 13.9984 92.8866 14.3087H92.9693V11.2292H94.0758V19.0248H93.0155V18.139H92.9279C92.7516 18.4471 92.4944 18.7012 92.184 18.8736C91.8736 19.0461 91.522 19.1303 91.1672 19.1172C89.7409 19.1173 88.8398 17.9949 88.8398 16.219ZM89.9829 16.219C89.9829 17.4082 90.5435 18.1238 91.481 18.1238C92.4136 18.1238 92.99 17.3979 92.99 16.2239C92.99 15.0553 92.4075 14.319 91.481 14.319C90.5495 14.319 89.9829 15.0395 89.9829 16.219H89.9829Z" fill="white"/>
<path d="M98.6531 16.219C98.6179 15.8505 98.66 15.4787 98.7769 15.1275C98.8937 14.7763 99.0827 14.4534 99.3316 14.1795C99.5806 13.9056 99.8841 13.6867 100.223 13.5369C100.561 13.3872 100.927 13.3098 101.297 13.3098C101.667 13.3098 102.033 13.3872 102.372 13.5369C102.71 13.6867 103.014 13.9056 103.263 14.1795C103.512 14.4534 103.701 14.7763 103.818 15.1275C103.934 15.4787 103.977 15.8505 103.941 16.219C103.977 16.5878 103.936 16.9601 103.819 17.3119C103.703 17.6637 103.514 17.9872 103.265 18.2616C103.016 18.5361 102.712 18.7554 102.373 18.9055C102.034 19.0555 101.668 19.1331 101.297 19.1331C100.927 19.1331 100.56 19.0555 100.221 18.9055C99.8825 18.7554 99.5788 18.5361 99.3298 18.2616C99.0808 17.9872 98.8919 17.6637 98.7754 17.3119C98.6589 16.9601 98.6172 16.5878 98.6531 16.219ZM102.803 16.219C102.803 15.0036 102.257 14.2929 101.299 14.2929C100.337 14.2929 99.7962 15.0036 99.7962 16.219C99.7962 17.4441 100.337 18.1493 101.299 18.1493C102.257 18.1493 102.803 17.4392 102.803 16.219Z" fill="white"/>
<path d="M105.428 13.4177H106.493V14.3084H106.576C106.716 13.9885 106.952 13.7203 107.252 13.5413C107.552 13.3622 107.901 13.2812 108.249 13.3095C108.522 13.289 108.796 13.3301 109.05 13.4298C109.305 13.5296 109.534 13.6853 109.72 13.8856C109.907 14.0859 110.046 14.3255 110.127 14.5868C110.208 14.848 110.23 15.1242 110.189 15.3949V19.0245H109.083V15.6727C109.083 14.7717 108.691 14.3236 107.873 14.3236C107.688 14.315 107.503 14.3465 107.331 14.416C107.159 14.4855 107.004 14.5914 106.877 14.7264C106.75 14.8613 106.653 15.0222 106.594 15.1979C106.535 15.3736 106.515 15.5601 106.534 15.7445V19.0245H105.428V13.4177Z" fill="white"/>
<path d="M116.441 12.022V13.4434H117.656V14.3755H116.441V17.2585C116.441 17.8459 116.683 18.103 117.234 18.103C117.375 18.1026 117.516 18.0941 117.656 18.0775V18.9992C117.457 19.0347 117.256 19.0537 117.054 19.0557C115.823 19.0557 115.333 18.6228 115.333 17.5419V14.3754H114.443V13.4434H115.333V12.022H116.441Z" fill="white"/>
<path d="M119.168 11.2292H120.265V14.319H120.352C120.499 13.9961 120.742 13.7264 121.048 13.5467C121.354 13.367 121.708 13.2859 122.062 13.3146C122.333 13.2999 122.605 13.3452 122.856 13.4473C123.108 13.5495 123.335 13.706 123.519 13.9056C123.703 14.1053 123.842 14.3432 123.923 14.6023C124.005 14.8615 124.029 15.1355 123.993 15.4049V19.0248H122.885V15.6779C122.885 14.7823 122.468 14.3287 121.686 14.3287C121.496 14.3131 121.305 14.3393 121.126 14.4054C120.947 14.4714 120.784 14.5758 120.65 14.7112C120.515 14.8466 120.412 15.0097 120.347 15.1892C120.282 15.3687 120.258 15.5601 120.275 15.7502V19.0248H119.168L119.168 11.2292Z" fill="white"/>
<path d="M130.444 17.5111C130.293 18.0235 129.968 18.4668 129.524 18.7633C129.079 19.0598 128.545 19.1908 128.014 19.1332C127.645 19.1429 127.278 19.0722 126.939 18.9258C126.599 18.7795 126.296 18.5611 126.049 18.2857C125.803 18.0104 125.619 17.6847 125.511 17.3313C125.404 16.9779 125.374 16.6052 125.424 16.2392C125.375 15.872 125.405 15.4985 125.513 15.1441C125.621 14.7896 125.803 14.4624 126.048 14.1847C126.294 13.9069 126.596 13.6851 126.934 13.5341C127.272 13.3832 127.639 13.3067 128.009 13.3099C129.57 13.3099 130.511 14.3758 130.511 16.1364V16.5225H126.551V16.5845C126.534 16.7903 126.56 16.9974 126.627 17.1926C126.695 17.3877 126.802 17.5667 126.943 17.7179C127.083 17.8691 127.254 17.9893 127.444 18.0708C127.634 18.1522 127.838 18.1931 128.045 18.1908C128.309 18.2225 128.578 18.1749 128.815 18.0538C129.053 17.9328 129.249 17.7439 129.379 17.511L130.444 17.5111ZM126.551 15.7041H129.383C129.397 15.516 129.372 15.327 129.308 15.1493C129.245 14.9715 129.145 14.8091 129.015 14.6723C128.885 14.5355 128.728 14.4274 128.554 14.355C128.379 14.2825 128.192 14.2474 128.003 14.2517C127.812 14.2493 127.622 14.2852 127.445 14.3574C127.267 14.4295 127.106 14.5364 126.971 14.6718C126.836 14.8071 126.729 14.9682 126.657 15.1455C126.585 15.3228 126.549 15.5128 126.551 15.7041H126.551Z" fill="white"/>
</g>
<defs>
<clipPath id="clip0_43_12195">
<rect width="149" height="49.8061" fill="white" transform="translate(0 0.723633)"/>
</clipPath>
</defs>
</svg>
