<svg width="50" height="51" viewBox="0 0 50 51" fill="none" xmlns="http://www.w3.org/2000/svg">
<rect y="0.723572" width="50" height="50" rx="25" fill="#DEE4F5"/>
<path d="M22.6673 35.0569H18.0007V37.3902H15.6673V35.0569H14.5007C14.1912 35.0569 13.8945 34.934 13.6757 34.7152C13.4569 34.4964 13.334 34.1997 13.334 33.8902V16.3902C13.334 16.0808 13.4569 15.7841 13.6757 15.5653C13.8945 15.3465 14.1912 15.2236 14.5007 15.2236H22.6673V13.5786C22.6674 13.4939 22.6858 13.4102 22.7215 13.3334C22.7571 13.2566 22.809 13.1885 22.8736 13.1337C22.9382 13.079 23.014 13.039 23.0956 13.0165C23.1772 12.994 23.2628 12.9895 23.3463 13.0034L35.692 15.0614C35.9644 15.1067 36.2119 15.2472 36.3905 15.4578C36.5691 15.6684 36.6672 15.9356 36.6673 16.2117V18.7236H37.834V21.0569H36.6673V29.2236H37.834V31.5569H36.6673V34.0687C36.6672 34.3449 36.5691 34.6121 36.3905 34.8227C36.2119 35.0333 35.9644 35.1738 35.692 35.2191L34.334 35.4454V37.3902H32.0007V35.8351L23.3463 37.2771C23.2628 37.291 23.1772 37.2865 23.0956 37.264C23.014 37.2415 22.9382 37.2015 22.8736 37.1467C22.809 37.092 22.7571 37.0239 22.7215 36.9471C22.6858 36.8702 22.6674 36.7866 22.6673 36.7019V35.0569ZM25.0007 34.6369L34.334 33.0806V17.1999L25.0007 15.6447V34.6357V34.6369ZM30.2507 28.0569C29.2847 28.0569 28.5007 26.7502 28.5007 25.1402C28.5007 23.5302 29.2847 22.2236 30.2507 22.2236C31.2167 22.2236 32.0007 23.5302 32.0007 25.1402C32.0007 26.7502 31.2167 28.0569 30.2507 28.0569Z" fill="#2071EE"/>
</svg>
