<svg width="58" height="59" viewBox="0 0 58 59" fill="none" xmlns="http://www.w3.org/2000/svg">
<g filter="url(#filter0_d_12_3030)">
<rect x="4" y="0.723572" width="50" height="50" rx="25" fill="#DEE4F5" shape-rendering="crispEdges"/>
<path d="M18.5007 15.2236H39.5007C39.8101 15.2236 40.1068 15.3465 40.3256 15.5653C40.5444 15.7841 40.6673 16.0808 40.6673 16.3902V35.0569C40.6673 35.3663 40.5444 35.6631 40.3256 35.8819C40.1068 36.1007 39.8101 36.2236 39.5007 36.2236H18.5007C18.1912 36.2236 17.8945 36.1007 17.6757 35.8819C17.4569 35.6631 17.334 35.3663 17.334 35.0569V16.3902C17.334 16.0808 17.4569 15.7841 17.6757 15.5653C17.8945 15.3465 18.1912 15.2236 18.5007 15.2236ZM38.334 25.7236H19.6673V33.8902H38.334V25.7236ZM38.334 21.0569V17.5569H19.6673V21.0569H38.334Z" fill="#2071EE"/>
</g>
<defs>
<filter id="filter0_d_12_3030" x="0" y="0.723572" width="58" height="58" filterUnits="userSpaceOnUse" color-interpolation-filters="sRGB">
<feFlood flood-opacity="0" result="BackgroundImageFix"/>
<feColorMatrix in="SourceAlpha" type="matrix" values="0 0 0 0 0 0 0 0 0 0 0 0 0 0 0 0 0 0 127 0" result="hardAlpha"/>
<feOffset dy="4"/>
<feGaussianBlur stdDeviation="2"/>
<feComposite in2="hardAlpha" operator="out"/>
<feColorMatrix type="matrix" values="0 0 0 0 0 0 0 0 0 0 0 0 0 0 0 0 0 0 0.25 0"/>
<feBlend mode="normal" in2="BackgroundImageFix" result="effect1_dropShadow_12_3030"/>
<feBlend mode="normal" in="SourceGraphic" in2="effect1_dropShadow_12_3030" result="shape"/>
</filter>
</defs>
</svg>
