<svg width="50" height="51" viewBox="0 0 50 51" fill="none" xmlns="http://www.w3.org/2000/svg">
<rect y="0.723572" width="50" height="50" rx="25" fill="#DEE4F5"/>
<path d="M11.8047 19.8868C15.537 16.8631 20.1963 15.2165 24.9997 15.2236C29.9989 15.2236 34.5897 16.9701 38.1947 19.8868L36.7294 21.7021C33.4116 19.0142 29.2696 17.5504 24.9997 17.5569C20.5559 17.5569 16.476 19.1086 13.27 21.7021L11.8047 19.8868ZM15.4692 24.4251C18.1649 22.2411 21.5303 21.0517 24.9997 21.0569C28.4689 21.0518 31.8341 22.2407 34.5302 24.4239L33.0637 26.2393C30.7827 24.3916 27.9351 23.3856 24.9997 23.3903C21.9454 23.3903 19.1395 24.4578 16.9357 26.2393L15.4692 24.4239V24.4251ZM19.1349 28.9634C20.7937 27.6193 22.8647 26.8872 24.9997 26.8903C27.221 26.8903 29.2615 27.6661 30.8645 28.9623L29.398 30.7776C28.1539 29.7699 26.6008 29.2211 24.9997 29.2236C23.3337 29.2236 21.803 29.8058 20.6014 30.7776L19.1349 28.9623V28.9634ZM22.8005 33.5018C23.4224 32.9974 24.199 32.7226 24.9997 32.7236C25.8327 32.7236 26.598 33.0153 27.1989 33.5006L24.9997 36.2236L22.8005 33.5006V33.5018Z" fill="#2071EE"/>
</svg>
