<svg width="50" height="51" viewBox="0 0 50 51" fill="none" xmlns="http://www.w3.org/2000/svg">
<rect y="0.723572" width="50" height="50" rx="25" fill="#DEE4F5"/>
<path d="M19.1673 16.3902V35.0569H30.834V16.3902H19.1673ZM18.0007 14.0569H32.0007C32.3101 14.0569 32.6068 14.1798 32.8256 14.3986C33.0444 14.6174 33.1673 14.9141 33.1673 15.2236V36.2236C33.1673 36.533 33.0444 36.8297 32.8256 37.0485C32.6068 37.2673 32.3101 37.3902 32.0007 37.3902H18.0007C17.6912 37.3902 17.3945 37.2673 17.1757 37.0485C16.9569 36.8297 16.834 36.533 16.834 36.2236V15.2236C16.834 14.9141 16.9569 14.6174 17.1757 14.3986C17.3945 14.1798 17.6912 14.0569 18.0007 14.0569ZM25.0007 31.5569C25.3101 31.5569 25.6068 31.6798 25.8256 31.8986C26.0444 32.1174 26.1673 32.4141 26.1673 32.7236C26.1673 33.033 26.0444 33.3297 25.8256 33.5485C25.6068 33.7673 25.3101 33.8902 25.0007 33.8902C24.6912 33.8902 24.3945 33.7673 24.1757 33.5485C23.9569 33.3297 23.834 33.033 23.834 32.7236C23.834 32.4141 23.9569 32.1174 24.1757 31.8986C24.3945 31.6798 24.6912 31.5569 25.0007 31.5569Z" fill="#2071EE"/>
</svg>
