<svg width="64" height="64" viewBox="0 0 64 64" fill="none" xmlns="http://www.w3.org/2000/svg">
<mask id="mask0_57_14803" style="mask-type:luminance" maskUnits="userSpaceOnUse" x="0" y="0" width="64" height="64">
<path d="M64 0H0V64H64V0Z" fill="white"/>
</mask>
<g mask="url(#mask0_57_14803)">
<path d="M31.9976 14.7794C41.5039 14.7794 49.2224 22.4973 49.2224 32.0036C49.2224 41.5098 41.5039 49.2278 31.9976 49.2278C22.4914 49.2278 14.7734 41.5098 14.7734 32.0036C14.7734 22.4973 22.4914 14.7794 31.9976 14.7794Z" fill="#F46363" fill-opacity="0.4"/>
<path d="M31.9991 14.8593C41.4593 14.8593 49.1405 22.5399 49.1405 32.0001C49.1405 41.4602 41.4593 49.1408 31.9991 49.1408C22.539 49.1408 14.8584 41.4602 14.8584 32.0001C14.8584 22.5399 22.539 14.8593 31.9991 14.8593Z" fill="#F46363"/>
<path d="M31.9994 14.859C41.4595 14.859 49.1404 22.5399 49.1404 32C49.1404 41.4601 41.4595 49.141 31.9994 49.141C22.5393 49.141 14.8584 41.4601 14.8584 32C14.8584 22.5399 22.5393 14.859 31.9994 14.859Z" stroke="#F46363" stroke-width="1.95556" stroke-miterlimit="1" stroke-linecap="round"/>
<mask id="mask1_57_14803" style="mask-type:luminance" maskUnits="userSpaceOnUse" x="-14" y="-14" width="92" height="92">
<path d="M-13.2549 32L32 -13.2548L77.2548 32L32 77.2548L-13.2549 32Z" fill="white"/>
</mask>
<g mask="url(#mask1_57_14803)">
<path d="M23.9111 23.9113L40.0886 40.0887" stroke="white" stroke-width="3.55556" stroke-linecap="round"/>
<path d="M40.0895 23.9113L23.9121 40.0887" stroke="white" stroke-width="3.55556" stroke-linecap="round"/>
</g>
</g>
</svg>
