<svg width="15" height="15" viewBox="0 0 15 15" fill="none" xmlns="http://www.w3.org/2000/svg">
<g opacity="0.3">
<path d="M12.5 7.5C12.5 6.81062 11.9394 6.25 11.25 6.25H10.625V4.375C10.625 2.65188 9.22312 1.25 7.5 1.25C5.77688 1.25 4.375 2.65188 4.375 4.375V6.25H3.75C3.06062 6.25 2.5 6.81062 2.5 7.5V12.5C2.5 13.1894 3.06062 13.75 3.75 13.75H11.25C11.9394 13.75 12.5 13.1894 12.5 12.5V7.5ZM5.625 4.375C5.625 3.34125 6.46625 2.5 7.5 2.5C8.53375 2.5 9.375 3.34125 9.375 4.375V6.25H5.625V4.375Z" fill="#333333"/>
</g>
</svg>
