<svg width="32" height="32" viewBox="0 0 32 32" fill="none" xmlns="http://www.w3.org/2000/svg">
<g clip-path="url(#clip0_11_583)">
<mask id="mask0_11_583" style="mask-type:luminance" maskUnits="userSpaceOnUse" x="0" y="0" width="32" height="32">
<path d="M32 0H0V32H32V0Z" fill="white"/>
</mask>
<g mask="url(#mask0_11_583)">
<mask id="mask1_11_583" style="mask-type:luminance" maskUnits="userSpaceOnUse" x="0" y="0" width="32" height="32">
<path d="M0 0H32V32H0V0Z" fill="white"/>
</mask>
<g mask="url(#mask1_11_583)">
<path d="M25.1311 16.1231C28.599 16.1231 31.5236 19.0769 30.1766 22.304C29.7897 23.2271 29.3208 24.1058 28.7701 24.9403C27.0436 27.5545 24.5878 29.5926 21.7153 30.7889C18.8501 31.9926 15.6873 32.3102 12.6436 31.6972C9.59246 31.0843 6.79432 29.5705 4.59898 27.3477C2.40363 25.1323 0.907812 22.304 0.305022 19.2172C-0.305211 16.1378 0.00734755 12.9477 1.19805 10.0455C2.3813 7.14339 4.39805 4.66954 6.98037 2.91939C9.5627 1.17662 12.599 0.246155 15.7097 0.246155V0.984616C15.7097 4.08616 13.0232 6.47877 10.4706 8.19939C8.9227 9.248 7.71711 10.7397 7.0027 12.4751C6.28828 14.2178 6.10223 16.1305 6.46688 17.984C6.82409 19.8302 7.72456 21.5286 9.04177 22.8578C10.359 24.1945 12.0408 25.0954 13.8715 25.4646C15.6948 25.8338 17.5925 25.6418 19.3115 24.9255C21.038 24.2018 22.5115 22.9834 23.546 21.4178C24.5804 19.8523 25.1311 18.0062 25.1311 16.1231Z" fill="#235BA8"/>
<path d="M16.2507 16.1231C16.2507 16.2606 16.1385 16.372 15.9999 16.372C15.8613 16.372 15.749 16.2606 15.749 16.1231C15.749 15.9855 15.8613 15.8741 15.9999 15.8741C16.1385 15.8741 16.2507 15.9855 16.2507 16.1231Z" fill="#235BA8"/>
<path d="M20.8416 16.1174C20.8416 18.7678 18.6766 20.9162 16.0057 20.9162C13.3347 20.9162 11.1697 18.7678 11.1697 16.1174C11.1697 13.467 13.3347 11.3187 16.0057 11.3187C18.6766 11.3187 20.8416 13.467 20.8416 16.1174Z" fill="#235BA8"/>
<path d="M27.5377 7.62688C27.5377 9.25833 26.206 10.5797 24.5619 10.5797C22.9178 10.5797 21.5862 9.25833 21.5862 7.62688C21.5862 5.99542 22.9178 4.67401 24.5619 4.67401C26.206 4.67401 27.5377 5.99542 27.5377 7.62688Z" fill="#235BA8"/>
<path d="M31.9976 1.72309C31.9976 2.53415 31.3289 3.19776 30.5115 3.19776C29.6941 3.19776 29.0254 2.53415 29.0254 1.72309C29.0254 0.912016 29.6941 0.248413 30.5115 0.248413C31.3289 0.248413 31.9976 0.912016 31.9976 1.72309Z" fill="#235BA8"/>
</g>
</g>
</g>
<defs>
<clipPath id="clip0_11_583">
<rect width="32" height="32" fill="white"/>
</clipPath>
</defs>
</svg>
